<?xml version="1.0" encoding="UTF-8" standalone="no"?>
<svg width="85px" height="28px" viewBox="0 0 85 28" version="1.1" xmlns="http://www.w3.org/2000/svg" xmlns:xlink="http://www.w3.org/1999/xlink">
    <!-- Generator: Sketch 3.7 (28169) - http://www.bohemiancoding.com/sketch -->
    <title>Google_2015_logo</title>
    <desc>Created with Sketch.</desc>
    <defs></defs>
    <g id="Page-1" stroke="none" stroke-width="1" fill="none" fill-rule="evenodd">
        <g id="01-Login" transform="translate(-785.000000, -419.000000)">
            <g id="Group" transform="translate(642.000000, 398.000000)">
                <g id="Google_2015_logo" transform="translate(143.000000, 21.000000)">
                    <path d="M11.0109,9.88765957 L11.0109,12.8315745 L18.038105,12.8315745 C17.690948,16.9597447 14.260705,18.7202553 11.0228,18.7202553 C6.88024,18.7202553 3.26536,15.456766 3.26536,10.8826383 C3.26536,6.4267234 6.71126,2.99506383 11.031895,2.99506383 C14.36534,2.99506383 16.329605,5.1227234 16.329605,5.1227234 L18.388305,2.98817021 C18.388305,2.98817036 15.74591,0.0428085106 10.926665,0.0428085106 C4.78992,0.0427234043 0.042415,5.22859574 0.042415,10.8300426 C0.042415,16.3188085 4.50823,21.6708936 11.083065,21.6708936 C16.8657,21.6708936 21.098615,17.7045957 21.098615,11.8394043 C21.098615,10.6020426 20.9191885,9.88689362 20.9191885,9.88689362 L11.0109,9.88765957 Z" id="path2998" fill="#4885ED"></path>
                    <path d="M29.036,7.75565957 C24.97028,7.75565957 22.056565,10.9382128 22.056565,14.6499574 C22.056565,18.4165957 24.88273,21.6582979 29.08377,21.6582979 C32.88684,21.6582979 36.002515,18.7479149 36.002515,14.7308936 C36.002515,10.1268085 32.378285,7.75565957 29.036,7.75565957 L29.036,7.75565957 Z M29.0764285,10.4861277 C31.0757985,10.4861277 32.9704485,12.1045957 32.9704485,14.7125106 C32.9704485,17.2651064 31.0838735,18.9297021 29.0672485,18.9297021 C26.8514685,18.9297021 25.1034435,17.1528511 25.1034435,14.6922553 C25.1034435,12.2844255 26.8297935,10.4861277 29.0764285,10.4861277 L29.0764285,10.4861277 Z" id="path3000" fill="#DB3236"></path>
                    <path d="M44.2153,7.75565957 C40.14958,7.75565957 37.235865,10.9382128 37.235865,14.6499574 C37.235865,18.4165957 40.06203,21.6582979 44.26307,21.6582979 C48.06614,21.6582979 51.181815,18.7479149 51.181815,14.7308936 C51.181815,10.1268085 47.557585,7.75565957 44.2153,7.75565957 L44.2153,7.75565957 Z M44.2557277,10.4861277 C46.2550977,10.4861277 48.1497477,12.1045957 48.1497477,14.7125106 C48.1497477,17.2651064 46.2631727,18.9297021 44.2465477,18.9297021 C42.0307677,18.9297021 40.2827427,17.1528511 40.2827427,14.6922553 C40.2827427,12.2844255 42.0090927,10.4861277 44.2557277,10.4861277 L44.2557277,10.4861277 Z" id="path3005" fill="#F4C20D"></path>
                    <path d="M59.1039,7.76297872 C55.37206,7.76297872 52.43871,11.0355745 52.43871,14.708766 C52.43871,18.8928511 55.839475,21.6674894 59.039555,21.6674894 C61.01827,21.6674894 62.0704,20.8810638 62.847215,19.978383 L62.847215,21.3491064 C62.847215,23.7474043 61.392865,25.1835745 59.197655,25.1835745 C57.07699,25.1835745 56.0133,23.604766 55.643635,22.7088511 L52.9754,23.8257021 C53.92196,25.8297021 55.82749,27.9195745 59.219755,27.9195745 C62.930175,27.9195745 65.758125,25.5795745 65.758125,20.672 L65.758125,8.18093617 L62.8473,8.18093617 L62.8473,9.35846809 C61.95225,8.39276596 60.72825,7.76314894 59.1039,7.76314894 L59.1039,7.76297872 Z M59.37403,10.4879149 C61.203655,10.4879149 63.08241,12.0521702 63.08241,14.7234894 C63.08241,17.4387234 61.20765,18.9351489 59.33357,18.9351489 C57.34406,18.9351489 55.492845,17.3177021 55.492845,14.7492766 C55.492845,12.0805106 57.41546,10.4879149 59.373945,10.4879149 L59.37403,10.4879149 Z" id="path3007" fill="#4885ED"></path>
                    <path d="M78.70065,7.74638298 C75.18046,7.74638298 72.224755,10.5506383 72.224755,14.6885106 C72.224755,19.0669787 75.51927,21.6637447 79.03878,21.6637447 C81.97621,21.6637447 83.77906,20.0547234 84.85499,18.6131064 L82.455015,17.0142128 C81.832237,17.9819574 80.791055,18.9277447 79.053485,18.9277447 C77.101715,18.9277447 76.204285,17.857617 75.6483,16.8210213 L84.9575,12.9534468 L84.4741985,11.82 C83.5748985,9.60042553 81.4770985,7.74680851 78.7009985,7.74680851 L78.70065,7.74638298 Z M78.821928,10.4198298 C80.090383,10.4198298 81.003283,11.0950809 81.390968,11.9046809 L75.174153,14.506383 C74.906131,12.4921702 76.812018,10.4198298 78.821928,10.4198298 L78.821928,10.4198298 Z" id="path3011" fill="#DB3236"></path>
                    <polygon id="path3015" fill="#3CBA54" points="67.78665 21.2510638 70.844525 21.2510638 70.844525 0.761702128 67.78665 0.761702128"></polygon>
                </g>
            </g>
        </g>
    </g>
</svg>