<?xml version="1.0" encoding="UTF-8" standalone="no"?>
<svg width="89px" height="16px" viewBox="0 0 89 16" version="1.1" xmlns="http://www.w3.org/2000/svg" xmlns:xlink="http://www.w3.org/1999/xlink">
    <!-- Generator: Sketch 3.7 (28169) - http://www.bohemiancoding.com/sketch -->
    <title>Group 6</title>
    <desc>Created with Sketch.</desc>
    <defs></defs>
    <g id="Page-1" stroke="none" stroke-width="1" fill="none" fill-rule="evenodd">
        <g id="01-Login" transform="translate(-596.000000, -892.000000)" fill="#9B9B9B">
            <g id="Group-6" transform="translate(596.000000, 892.000000)">
                <path d="M8.02254362,3.78 C5.76021141,3.78 3.92675168,5.66953846 3.92675168,8.00030769 C3.92675168,10.3304615 5.76021141,12.2190769 8.02254362,12.2190769 C10.2842785,12.2190769 12.1180369,10.3304615 12.1180369,8.00030769 C12.1180369,5.66953846 10.2842785,3.78 8.02254362,3.78 L8.02254362,3.78 Z M8.02254362,2.00553846 L9.37456711,3.37907692 L11.2331141,2.97661538 L11.649443,4.88584615 L13.4243658,5.58276923 L12.7732919,7.42 L13.9004262,8.99476923 L12.3880235,10.1781538 L12.5104732,12.1301538 L10.6169832,12.2836923 L9.6953255,13.9944615 L8.02254362,13.0689231 L6.34946309,13.9944615 L5.42780537,12.2836923 L3.53431544,12.1301538 L3.6567651,10.1781538 L2.14466107,8.99476923 L3.2717953,7.42 L2.62042282,5.58276923 L4.39504698,4.88584615 L4.81197315,2.97661538 L6.66992282,3.37907692 L8.02254362,2.00553846 L8.02254362,2.00553846 Z" id="Fill-3"></path>
                <path d="M8.02224497,1.27815385 C4.42431544,1.27815385 1.49836577,4.29323077 1.49836577,8.00030769 C1.49836577,11.7067692 4.42431544,14.7218462 8.02224497,14.7218462 C11.6195772,14.7218462 14.5464228,11.7067692 14.5464228,8.00030769 C14.5464228,4.29323077 11.6195772,1.27815385 8.02224497,1.27815385 L8.02224497,1.27815385 Z M8.02224497,15.9575385 C3.76338591,15.9575385 0.29835906,12.3876923 0.29835906,8.00030769 C0.29835906,3.61230769 3.76338591,0.0424615385 8.02224497,0.0424615385 C12.2808054,0.0424615385 15.7464295,3.61230769 15.7464295,8.00030769 C15.7464295,12.3876923 12.2808054,15.9575385 8.02224497,15.9575385 L8.02224497,15.9575385 Z" id="Fill-4"></path>
                <path d="M8.02254362,9.788 C7.06534564,9.788 6.28674497,8.98584615 6.28674497,8.00030769 C6.28674497,7.01415385 7.06534564,6.212 8.02254362,6.212 C8.97944295,6.212 9.75774497,7.01415385 9.75774497,8.00030769 C9.75774497,8.98584615 8.97944295,9.788 8.02254362,9.788 L8.02254362,9.788 Z M8.02254362,5.37046154 C6.6149698,5.37046154 5.47051342,6.55046154 5.47051342,8.00030769 C5.47051342,9.45015385 6.6149698,10.6295385 8.02254362,10.6295385 C9.42952013,10.6295385 10.5742752,9.45015385 10.5742752,8.00030769 C10.5742752,6.55046154 9.42952013,5.37046154 8.02254362,5.37046154 L8.02254362,5.37046154 Z" id="Fill-5"></path>
                <path d="M29.048943,12.4516923 C29.3272919,12.7141538 29.6426745,12.9070769 29.9918054,13.0289231 C30.3418322,13.1516923 30.6849899,13.2123077 31.0236678,13.2123077 C31.362943,13.2123077 31.7055034,13.1516923 32.0561275,13.0289231 C32.4049597,12.9070769 32.7233289,12.7153846 33.0079497,12.4612308 C33.6491678,11.8624615 33.9684329,10.9910769 33.9684329,9.85446154 C33.9684329,8.75630769 33.6491678,7.89907692 33.0079497,7.29015385 C32.4748456,6.78892308 31.8151107,6.53846154 31.0332248,6.53846154 C29.7519832,6.53846154 28.8607886,7.13169231 28.3644195,8.31630769 C28.1849262,8.74461538 28.0953289,9.26123077 28.0953289,9.86338462 C28.0953289,10.4695385 28.1849262,10.9876923 28.3644195,11.4138462 C28.5406275,11.844 28.769698,12.1864615 29.048943,12.4516923 L29.048943,12.4516923 Z M31.0332248,5.01630769 C32.4094396,5.01630769 33.5117852,5.46307692 34.341755,6.35415385 C35.1732181,7.25876923 35.5880537,8.43261538 35.5880537,9.87569231 C35.5880537,11.316 35.1732181,12.4910769 34.341755,13.3950769 C33.5117852,14.2876923 32.4094396,14.732 31.0332248,14.732 C29.6447651,14.732 28.5406275,14.2876923 27.7229027,13.3950769 C26.8923356,12.504 26.4777987,11.328 26.4777987,9.87569231 C26.4777987,8.42030769 26.8923356,7.24646154 27.7229027,6.35415385 C28.5406275,5.46307692 29.6447651,5.01630769 31.0332248,5.01630769 L31.0332248,5.01630769 Z" id="Fill-6"></path>
                <path d="M38.8980772,12.4516923 C39.1758289,12.7141538 39.4912114,12.9070769 39.8412383,13.0289231 C40.1900705,13.1516923 40.5338255,13.2123077 40.872802,13.2123077 C41.2114799,13.2123077 41.5552349,13.1516923 41.9049631,13.0289231 C42.2534966,12.9070769 42.5718658,12.7153846 42.8564866,12.4612308 C43.4968087,11.8624615 43.8169698,10.9910769 43.8169698,9.85446154 C43.8169698,8.75630769 43.4968087,7.89907692 42.8564866,7.29015385 C42.3230839,6.78892308 41.6636477,6.53846154 40.8820604,6.53846154 C39.6011174,6.53846154 38.7111174,7.13169231 38.2126577,8.31630769 C38.0337617,8.74461538 37.9453591,9.26123077 37.9453591,9.86338462 C37.9453591,10.4695385 38.0337617,10.9876923 38.2126577,11.4138462 C38.3909564,11.844 38.6182349,12.1864615 38.8980772,12.4516923 L38.8980772,12.4516923 Z M40.8820604,5.01630769 C42.2579765,5.01630769 43.3612181,5.46307692 44.1911879,6.35415385 C45.022651,7.25876923 45.4368893,8.43261538 45.4368893,9.87569231 C45.4368893,11.316 45.022651,12.4910769 44.1911879,13.3950769 C43.3612181,14.2876923 42.2579765,14.732 40.8820604,14.732 C39.4936007,14.732 38.3909564,14.2876923 37.5723356,13.3950769 C36.7414698,12.504 36.3266342,11.328 36.3266342,9.87569231 C36.3266342,8.42030769 36.7414698,7.24646154 37.5723356,6.35415385 C38.3909564,5.46307692 39.4936007,5.01630769 40.8820604,5.01630769 L40.8820604,5.01630769 Z" id="Fill-7"></path>
                <path d="M73.2744765,9.10338462 C73.3336107,8.66984615 73.459047,8.24307692 73.6292819,7.89507692 C74.071594,6.99723077 74.8681141,6.42676923 75.9262584,6.42676923 C76.5904732,6.42676923 77.1719597,6.62246154 77.6342819,7.05076923 C78.1252752,7.50615385 78.4490201,8.23969231 78.5798322,9.10338462 L73.2744765,9.10338462 L73.2744765,9.10338462 Z M75.9943523,13.2483077 C74.1223658,13.1369231 73.3094195,11.5809231 73.3094195,10.4301538 L79.3432013,10.4301538 C79.3432013,10.4301538 79.7923826,10.3507692 79.9381275,10.1916923 C80.0880537,10.0338462 80.1609262,9.83815385 80.1609262,9.60584615 C80.1609262,8.324 79.7992517,7.24646154 79.0753054,6.37846154 C78.3029765,5.45015385 77.2537919,4.98461538 75.9262584,4.98461538 C74.5255537,4.98461538 73.4471007,5.488 72.6882114,6.49015385 C72.011453,7.38030769 71.6733725,8.5 71.6733725,9.84584615 C71.6733725,11.3981538 72.0774564,12.5938462 72.8850268,13.4378462 C73.615245,14.2033846 74.6459128,14.6621538 75.9172987,14.732 C79.1619161,14.732 79.9912886,12.0458462 79.9912886,12.0458462 C80.1979597,11.3166154 79.6794899,11.4172308 79.1275705,11.3873846 C78.6945168,11.3649231 78.5350336,11.7652308 78.5350336,11.7652308 C77.6587718,13.364 75.9943523,13.2483077 75.9943523,13.2483077 L75.9943523,13.2483077 Z" id="Fill-8"></path>
                <path d="M59.5878893,6.24615385 C59.0413456,5.488 58.2427349,5.14553846 57.3240638,5.10953846 C56.4036007,5.08307692 55.679953,5.34338462 54.9960268,5.84307692 C54.4826342,6.24615385 54.2027919,6.628 54.0167282,6.936 C53.7276275,6.37507692 53.5155805,6.15169231 53.1362852,5.78523077 C52.4887953,5.208 51.9320973,5.16738462 51.3297047,5.10953846 C50.1891309,5.06676923 49.0888758,5.53630769 48.306094,6.52953846 L48.306094,5.96461538 C48.306094,5.69938462 48.0955403,5.48276923 47.8380973,5.48276923 L47.1541711,5.48276923 C46.8967282,5.48276923 46.6861745,5.69938462 46.6861745,5.96461538 L46.6861745,14.2501538 C46.6861745,14.5166154 46.8967282,14.732 47.1541711,14.732 L47.8380973,14.732 C48.0955403,14.732 48.306094,14.5166154 48.306094,14.2501538 L48.306094,8.88861538 C48.306094,8.48030769 48.4733423,8.11938462 48.5450201,8.02830769 C49.1727987,7.06153846 49.9125738,6.64769231 50.8670839,6.64769231 C51.542349,6.64769231 52.0154228,6.84153846 52.2839161,7.22461538 C52.5494228,7.61015385 52.6838188,8.18923077 52.6838188,8.95815385 L52.6838188,14.2501538 C52.6838188,14.5166154 52.8928792,14.732 53.153906,14.732 L53.8342483,14.732 C54.0925872,14.732 54.301349,14.5166154 54.301349,14.2501538 L54.301349,8.80030769 C54.301349,8.52861538 54.3712349,8.36861538 54.4046846,8.31107692 C55.0533691,7.20307692 55.8725872,6.64769231 56.8662215,6.64769231 C57.5411879,6.64769231 58.0112752,6.84153846 58.2794698,7.22461538 C58.5473658,7.61015385 58.6796711,8.18923077 58.6796711,8.95815385 L58.6796711,14.2501538 C58.6796711,14.5166154 58.8917181,14.732 59.1491611,14.732 L59.831594,14.732 C60.0920235,14.732 60.2977987,14.5166154 60.2977987,14.2501538 L60.2977987,8.62830769 C60.2977987,7.68707692 60.062755,6.89292308 59.5878893,6.24615385" id="Fill-9"></path>
                <path d="M87.0820201,11.4947692 C87.0799295,11.5550769 87.0778389,11.7596923 86.9598691,11.9249231 C86.6919732,12.3070769 86.3694228,12.6378462 85.9501074,12.884 C85.4683725,13.1646154 84.8453725,13.4556923 84.2886745,13.4556923 C83.0292349,13.4556923 82.2365973,12.924 82.2736309,11.8 C82.291849,11.2316923 82.6938423,10.9012308 83.1669161,10.6809231 C83.6405872,10.4621538 84.3012181,10.3507692 85.1434329,10.3507692 L86.8380168,10.3507692 C86.8380168,10.3507692 87.0820201,10.3452308 87.0820201,10.5836923 L87.0820201,11.4947692 L87.0820201,11.4947692 Z M84.728,6.47107692 C84.728,6.47107692 85.4131208,6.392 86.1352752,6.94338462 C86.1352752,6.94338462 86.9909295,7.47292308 87.064698,8.61415385 C87.0718658,8.69169231 87.0608154,9.01384615 86.7857517,9.01384615 L84.9292953,9.01384615 C83.5880235,9.01384615 82.5561611,9.29384615 81.8343054,9.85446154 C81.1691946,10.3704615 80.8370872,11.0787692 80.8370872,11.9818462 C80.8370872,12.8141538 81.1757651,13.468 81.7459027,13.9824615 C82.2921477,14.4698462 82.9205235,14.732 83.737651,14.732 C85.6774329,14.732 86.7092953,13.8267692 87.0820201,13.5024615 L87.0820201,14.1584615 C87.0820201,14.4255385 87.2922752,14.6424615 87.5482248,14.6424615 L88.233943,14.6424615 C88.4931779,14.6424615 88.7016409,14.4255385 88.7016409,14.1584615 L88.7016409,8.62830769 C88.7016409,7.63876923 88.4053725,6.85046154 87.8128356,6.18892308 C87.3881443,5.70492308 86.3332852,5.05323077 85.0006745,5.05323077 L85.0006745,5.05446154 C85.0006745,5.05446154 82.5277886,4.74461538 81.3289765,7.13384615 C81.3289765,7.13384615 81.0395772,7.68707692 81.6775101,7.71969231 C82.2539195,7.74892308 82.6887651,7.81815385 82.927094,7.37446154 C83.2902617,6.91015385 83.9001208,6.47107692 84.728,6.47107692 L84.728,6.47107692 Z" id="Fill-10"></path>
                <path d="M69.0789329,11.3043077 C68.6282584,12.5523077 67.7269094,13.1763077 66.3748859,13.1763077 C65.7680134,13.1763077 63.5633221,12.92 63.5633221,9.83015385 C63.5633221,7.28061538 65.3612416,6.57446154 66.3748859,6.57446154 C67.2520436,6.57446154 67.9532919,6.85046154 68.473255,7.40030769 C69.0197987,7.99753846 69.2933691,8.82338462 69.2933691,9.87569231 C69.2933691,10.4126154 69.2213926,10.8892308 69.0789329,11.3043077 L69.0789329,11.3043077 Z M69.5585772,6.28215385 C68.741151,5.43784615 67.7567752,5.01630769 66.6045537,5.01630769 C65.4562148,5.01630769 64.4401812,5.48276923 63.5633221,6.41107692 L63.5633221,2.54092308 L63.5633221,2.53753846 L63.5633221,1.48184615 C63.5633221,1.21630769 63.3542617,0.999384615 63.0932349,0.999384615 L62.4119966,0.999384615 C62.1539564,0.999384615 61.9434027,1.21630769 61.9434027,1.48184615 L61.9434027,14.1584615 C61.9434027,14.4255385 62.1539564,14.6424615 62.4119966,14.6424615 L63.0932349,14.6424615 C63.3542617,14.6424615 63.5633221,14.4255385 63.5633221,14.1584615 L63.5633221,13.4883077 C64.401953,14.3393846 65.4529295,14.732 66.5961913,14.732 C67.7424396,14.732 68.7303993,14.3181538 69.5585772,13.4861538 C70.4605235,12.5686154 70.9126913,11.3676923 70.9126913,9.87569231 C70.9126913,8.40953846 70.4605235,7.20861538 69.5585772,6.28215385 L69.5585772,6.28215385 Z" id="Fill-11"></path>
                <path d="M25.8745101,13.4113846 L22.1009698,9.09323077 L22.1114228,9.08246154 L25.3533523,6.104 C25.3721678,6.08492308 25.3888926,6.064 25.4026309,6.04061538 C25.4996946,5.88646154 25.4829698,5.67846154 25.3512617,5.54523077 L24.9519564,5.13753846 C24.8005369,4.98307692 24.5574295,4.98707692 24.4089966,5.14215385 L20.5757248,8.73661538 L20.5757248,0.812615385 C20.5757248,0.541846154 20.3627819,0.320923077 20.1008591,0.320923077 L19.4040906,0.320923077 C19.1403758,0.320923077 18.9292248,0.541846154 18.9292248,0.812615385 L18.9292248,13.8710769 C18.9292248,14.1409231 19.1418691,14.3624615 19.4040906,14.3624615 L20.1008591,14.3624615 C20.3651711,14.3624615 20.5757248,14.1409231 20.5757248,13.8710769 L20.5757248,9.97230769 L24.5926711,14.6156923 C24.7733591,14.7683077 25.0394631,14.7756923 25.2279161,14.6184615 L25.6744094,14.2461538 L25.8007416,14.1415385 C25.8512148,14.0993846 25.8912349,14.0489231 25.9211007,13.9944615 C26.0208523,13.8138462 26.0083087,13.5821538 25.8745101,13.4113846" id="Fill-12"></path>
            </g>
        </g>
    </g>
</svg>