<?xml version="1.0" encoding="UTF-8" standalone="no"?>
<svg width="33px" height="185px" viewBox="0 0 33 185" version="1.1" xmlns="http://www.w3.org/2000/svg" xmlns:xlink="http://www.w3.org/1999/xlink">
    <!-- Generator: Sketch 3.7 (28169) - http://www.bohemiancoding.com/sketch -->
    <title>Slice 1</title>
    <desc>Created with Sketch.</desc>
    <defs></defs>
    <g id="Page-1" stroke="none" stroke-width="1" fill="none" fill-rule="evenodd">
        <g id="refresh" transform="translate(17.000000, 159.000000) scale(-1, 1) translate(-17.000000, -159.000000) translate(11.000000, 153.000000)" fill="#4A4A4A">
            <path d="M6,0 C2.7,0 0,2.7 0,6 C0,9.3 2.7,12 6,12 C8.775,12 11.1,10.05 12,7.5 L10.5,7.5 C9.6,9.225 7.95,10.5 6,10.5 C3.525,10.5 1.5,8.475 1.5,6 C1.5,3.525 3.525,1.5 6,1.5 C7.275,1.5 8.325,2.025 9,3 L6.75,5.25 L12,5.25 L12,0 L10.5,1.5 C9.15,0.75 7.65,0 6,0 Z" id="Shape"></path>
        </g>
        <g id="Group-4" transform="translate(11.000000, 167.000000)" fill="#4A4A4A">
            <g id="Group-11">
                <path d="M6,15 C9.3137085,15 12,12.3137085 12,9 C12,5.6862915 9.3137085,3 6,3 C2.6862915,3 0,5.6862915 0,9 C0,12.3137085 2.6862915,15 6,15 Z M6,13 C8.209139,13 10,11.209139 10,9 C10,6.790861 8.209139,5 6,5 C3.790861,5 2,6.790861 2,9 C2,11.209139 3.790861,13 6,13 Z" id="Combined-Shape"></path>
                <rect id="Rectangle-36" x="5" y="0" width="2" height="10" rx="100"></rect>
            </g>
        </g>
        <g id="add" opacity="0.4" transform="translate(10.000000, 135.000000)" fill="#4A4A4A">
            <polygon id="Shape" points="5.89285714 0.75 5.89285714 5.89285714 0.75 5.89285714 0.75 7.60714286 5.89285714 7.60714286 5.89285714 12.75 7.60714286 12.75 7.60714286 7.60714286 12.75 7.60714286 12.75 5.89285714 7.60714286 5.89285714 7.60714286 0.75"></polygon>
        </g>
        <g id="continue-arrow" transform="translate(8.000000, 17.000000)" fill="#000000">
            <g id="Page-1">
                <g id="01-Login">
                    <g id="Group">
                        <polygon id="Shape" points="8 0 6.6 1.4 12.2 7 0 7 0 9 12.2 9 6.6 14.6 8 16 16 8"></polygon>
                    </g>
                </g>
            </g>
        </g>
        <g id="icon-add" transform="translate(10.000000, 0.000000)" fill="#4A4A4A">
            <g id="Desktop">
                <g id="02-Empty-Form">
                    <g id="Group-7">
                        <g id="add">
                            <polygon id="Shape" points="5.89285714 0.75 5.89285714 5.89285714 0.75 5.89285714 0.75 7.60714286 5.89285714 7.60714286 5.89285714 12.75 7.60714286 12.75 7.60714286 7.60714286 12.75 7.60714286 12.75 5.89285714 7.60714286 5.89285714 7.60714286 0.75"></polygon>
                        </g>
                    </g>
                </g>
            </g>
        </g>
        <g id="icon-done" transform="translate(2.000000, 37.000000)" fill="#FFFFFF">
            <g id="Desktop">
                <g id="04-Success-Message">
                    <g id="Group">
                        <path d="M27.8347273,8.94254545 C27.5757045,8.68747727 27.1578409,8.69077273 26.9027727,8.95045455 C26.7215227,9.135 26.6767045,9.39797727 26.7557955,9.628 L26.7419545,9.63261364 C27.3417273,11.1399545 27.6818182,12.7784545 27.6818182,14.5 C27.6818182,21.7803182 21.7803182,27.6818182 14.5,27.6818182 C7.2203409,27.6818182 1.3181818,21.7803182 1.3181818,14.5 C1.3181818,7.21968182 7.2203409,1.31818182 14.5,1.31818182 C18.2258409,1.31818182 21.5852273,2.86836364 23.9803636,5.35511364 L23.9889318,5.34654545 C24.2499318,5.58052273 24.6486818,5.57525 24.8971591,5.32281818 C25.1522273,5.06313636 25.1489318,4.64593182 24.88925,4.39086364 C24.8648636,4.36647727 24.8325682,4.35593182 24.8055455,4.33615909 C22.1803864,1.66618182 18.5408864,0 14.5,0 C6.4913864,0 0,6.49138636 0,14.5 C0,22.5079545 6.4913864,29 14.5,29 C22.5079545,29 29,22.5079545 29,14.5 C29,12.6360909 28.6355227,10.8598409 27.9942273,9.22265909 C27.96325,9.12115909 27.9157955,9.02295455 27.8347273,8.94254545 L27.8347273,8.94254545 L27.8347273,8.94254545 Z M14.4887955,18.1704773 L8.3750682,12.05675 C8.2557727,11.9374545 8.091,11.8636364 7.9090909,11.8636364 C7.5446136,11.8636364 7.25,12.1589091 7.25,12.5227273 C7.25,12.7046364 7.3231591,12.8694091 7.4431136,12.9893636 L14.0340227,19.5796136 C14.1533182,19.6989091 14.3174318,19.7727273 14.5,19.7727273 C14.6878409,19.7727273 14.8545909,19.6929773 14.9745455,19.5664318 L14.9765227,19.5690682 L25.9820227,8.03893182 C25.9820227,8.04025 25.984,8.04156818 25.9846591,8.04288636 L26.9258409,7.05556818 C26.9251818,7.05490909 26.9245227,7.05359091 26.9238636,7.05227273 L28.8174318,5.06840909 L28.8154545,5.06643182 C28.9281591,4.94845455 29,4.78961364 29,4.61363636 C29,4.24981818 28.7047273,3.95454545 28.3409091,3.95454545 C28.1524091,3.95454545 27.9856591,4.03495455 27.8657045,4.16018182 L27.8643864,4.15820455 L26.1705227,5.93313636 C26.1692045,5.93115909 26.1678864,5.92918182 26.1665682,5.92786364 L25.2471364,6.89145455 C25.2484545,6.89343182 25.2491136,6.89540909 25.2504318,6.89672727 L14.4887955,18.1704773 L14.4887955,18.1704773 Z" id="Fill-1"></path>
                    </g>
                </g>
            </g>
        </g>
        <g id="icon-logout" transform="translate(11.000000, 103.000000)" opacity="0.4" fill="#4A4A4A">
            <g id="Desktop">
                <g id="02-Empty-Form">
                    <g id="Group-9">
                        <g id="Group-4">
                            <path d="M6,15 C9.3137085,15 12,12.3137085 12,9 C12,5.6862915 9.3137085,3 6,3 C2.6862915,3 0,5.6862915 0,9 C0,12.3137085 2.6862915,15 6,15 L6,15 Z M6,13 C8.209139,13 10,11.209139 10,9 C10,6.790861 8.209139,5 6,5 C3.790861,5 2,6.790861 2,9 C2,11.209139 3.790861,13 6,13 L6,13 Z" id="Combined-Shape"></path>
                            <rect id="Rectangle-36" x="5" y="0" width="2" height="10" rx="100"></rect>
                        </g>
                    </g>
                </g>
            </g>
        </g>
        <g id="icon-refresh" transform="translate(11.000000, 120.000000)" opacity="0.4" fill="#4A4A4A">
            <g id="Desktop">
                <g id="02-Empty-Form">
                    <g id="Group-8">
                        <g id="refresh" transform="translate(6.000000, 6.000000) scale(-1, 1) translate(-6.000000, -6.000000) ">
                            <path d="M6,0 C2.7,0 0,2.7 0,6 C0,9.3 2.7,12 6,12 C8.775,12 11.1,10.05 12,7.5 L10.5,7.5 C9.6,9.225 7.95,10.5 6,10.5 C3.525,10.5 1.5,8.475 1.5,6 C1.5,3.525 3.525,1.5 6,1.5 C7.275,1.5 8.325,2.025 9,3 L6.75,5.25 L12,5.25 L12,0 L10.5,1.5 C9.15,0.75 7.65,0 6,0 L6,0 Z" id="Shape"></path>
                        </g>
                    </g>
                </g>
            </g>
        </g>
        <g id="chevron-right" transform="translate(13.000000, 73.000000)" opacity="0.4" fill="#FFFFFF">
            <g id="Desktop">
                <g id="03-Full-Form">
                    <g id="Group-3">
                        <g id="chevron-left" transform="translate(4.000000, 6.000000) rotate(180.000000) translate(-4.000000, -6.000000) ">
                            <polygon id="Shape" points="7.4 1.4 6 0 0 6 6 12 7.4 10.6 2.8 6"></polygon>
                        </g>
                    </g>
                </g>
            </g>
        </g>
        <g id="chevron-left" transform="translate(13.000000, 87.000000)" opacity="0.4" fill="#FFFFFF">
            <g id="Desktop">
                <g id="03-Full-Form">
                    <g id="Group-3">
                        <g id="chevron-left">
                            <polygon id="Shape" points="7.4 1.4 6 0 0 6 6 12 7.4 10.6 2.8 6"></polygon>
                        </g>
                    </g>
                </g>
            </g>
        </g>
    </g>
</svg>